<svg width="253" height="103" viewBox="0 0 253 103" fill="none" xmlns="http://www.w3.org/2000/svg">
<path d="M15.6277 98H66.5391C80.4866 98 91.792 86.6922 91.792 72.7471V10H40.8974C39.2389 9.99937 37.5966 10.3256 36.0643 10.9599C34.5319 11.5943 33.1396 12.5244 31.9669 13.6971C30.7942 14.8699 29.864 16.2622 29.2297 17.7945C28.5953 19.3269 28.2691 20.9692 28.2697 22.6277L28.2529 34.8665" stroke="white" stroke-width="5.40351" stroke-linecap="round" stroke-linejoin="round"/>
<path d="M3 57.338H28.2529M43.6451 57.338H75.7086M43.6451 73.623H75.7086M15.6277 34.8665H28.2529V85.3723C28.2516 88.7206 26.9211 91.9314 24.5538 94.2992C22.1864 96.667 18.9759 97.998 15.6277 98C12.279 97.9987 9.06783 96.6679 6.69996 94.3C4.33209 91.9321 3.00127 88.721 3 85.3723V47.4917C3.00191 44.1435 4.33301 40.9329 6.70081 38.5656C9.06861 36.1982 12.2794 34.8678 15.6277 34.8665ZM43.6451 28.3583H57.655V42.3682H43.6451V28.3583Z" stroke="white" stroke-width="5.40351" stroke-linecap="round" stroke-linejoin="round"/>
<path d="M109.962 7.36281V21H105.686V7.36281H109.962ZM124.972 21H120.696L116.17 14.1429V21H111.894V7.36281H116.17L120.696 14.3355V7.36281H124.972V21ZM140.638 7.36281L136.053 21H130.525L125.941 7.36281H130.487L133.299 16.7432L136.092 7.36281H140.638ZM148.24 21.1348C146.956 21.1348 145.775 20.8331 144.696 20.2295C143.63 19.626 142.783 18.7913 142.153 17.7255C141.524 16.6597 141.21 15.4591 141.21 14.1236C141.21 12.7882 141.524 11.5875 142.153 10.5217C142.783 9.4559 143.63 8.62765 144.696 8.03697C145.775 7.43344 146.956 7.13167 148.24 7.13167C149.524 7.13167 150.699 7.43344 151.765 8.03697C152.831 8.62765 153.672 9.4559 154.288 10.5217C154.917 11.5875 155.232 12.7882 155.232 14.1236C155.232 15.4591 154.917 16.6597 154.288 17.7255C153.672 18.7913 152.824 19.626 151.746 20.2295C150.68 20.8331 149.511 21.1348 148.24 21.1348ZM148.24 17.1477C149.087 17.1477 149.742 16.878 150.205 16.3387C150.667 15.7865 150.898 15.0482 150.898 14.1236C150.898 13.1862 150.667 12.4479 150.205 11.9085C149.742 11.3564 149.087 11.0803 148.24 11.0803C147.38 11.0803 146.718 11.3564 146.256 11.9085C145.794 12.4479 145.563 13.1862 145.563 14.1236C145.563 15.0482 145.794 15.7865 146.256 16.3387C146.718 16.878 147.38 17.1477 148.24 17.1477ZM161.051 7.36281V21H156.775V7.36281H161.051ZM162.597 14.1621C162.597 12.8138 162.866 11.6132 163.406 10.5602C163.958 9.50727 164.741 8.69186 165.756 8.11401C166.77 7.52332 167.964 7.22798 169.338 7.22798C170.52 7.22798 171.573 7.4527 172.497 7.90213C173.434 8.33873 174.192 8.96152 174.77 9.77051C175.361 10.5795 175.752 11.5233 175.945 12.602H171.438C171.232 12.1525 170.937 11.8058 170.552 11.5618C170.179 11.305 169.749 11.1766 169.261 11.1766C168.542 11.1766 167.971 11.4463 167.547 11.9856C167.136 12.5249 166.93 13.2504 166.93 14.1621C166.93 15.0739 167.136 15.7994 167.547 16.3387C167.971 16.878 168.542 17.1477 169.261 17.1477C169.749 17.1477 170.179 17.0257 170.552 16.7817C170.937 16.5249 171.232 16.1718 171.438 15.7223H175.945C175.752 16.801 175.361 17.7448 174.77 18.5538C174.192 19.3628 173.434 19.992 172.497 20.4414C171.573 20.878 170.52 21.0963 169.338 21.0963C167.964 21.0963 166.77 20.8074 165.756 20.2295C164.741 19.6388 163.958 18.817 163.406 17.7641C162.866 16.7111 162.597 15.5105 162.597 14.1621ZM181.761 10.7721V12.4479H185.998V15.6645H181.761V17.5907H186.576V21H177.484V7.36281H186.576V10.7721H181.761ZM122.078 36.3628V50H117.821V43.2007L115.721 50H112.062L109.962 43.2007V50H105.686V36.3628H110.925L113.93 44.549L116.858 36.3628H122.078ZM132.752 47.939H128.206L127.532 50H123.044L128.033 36.3628H132.964L137.933 50H133.426L132.752 47.939ZM131.712 44.7223L130.479 40.9278L129.246 44.7223H131.712ZM151.984 50H147.707L143.181 43.1429V50H138.905V36.3628H143.181L147.707 43.3355V36.3628H151.984V50ZM162.66 47.939H158.114L157.44 50H152.952L157.941 36.3628H162.872L167.841 50H163.334L162.66 47.939ZM161.62 44.7223L160.387 40.9278L159.155 44.7223H161.62ZM177.173 41.0241C177.006 40.7544 176.768 40.549 176.46 40.4077C176.152 40.2536 175.779 40.1766 175.343 40.1766C174.521 40.1766 173.885 40.4463 173.436 40.9856C172.986 41.5121 172.762 42.2376 172.762 43.1621C172.762 44.228 173.012 45.0241 173.513 45.5506C174.014 46.0771 174.784 46.3403 175.824 46.3403C176.813 46.3403 177.609 45.9422 178.213 45.1461H174.803V42.122H181.757V46.3981C181.166 47.4125 180.351 48.2857 179.311 49.0177C178.27 49.7368 176.954 50.0963 175.362 50.0963C173.949 50.0963 172.717 49.8074 171.664 49.2295C170.624 48.6388 169.821 47.817 169.256 46.7641C168.704 45.7111 168.428 44.5105 168.428 43.1621C168.428 41.8138 168.704 40.6132 169.256 39.5602C169.821 38.5073 170.624 37.6919 171.664 37.114C172.704 36.5233 173.924 36.228 175.323 36.228C177.108 36.228 178.559 36.6582 179.677 37.5185C180.807 38.3789 181.474 39.5474 181.68 41.0241H177.173ZM187.573 39.7721V41.4479H191.81V44.6645H187.573V46.5907H192.388V50H183.297V36.3628H192.388V39.7721H187.573ZM210.391 36.3628V50H206.135V43.2007L204.035 50H200.375L198.276 43.2007V50H194V36.3628H199.239L202.244 44.549L205.171 36.3628H210.391ZM216.597 39.7721V41.4479H220.834V44.6645H216.597V46.5907H221.412V50H212.321V36.3628H221.412V39.7721H216.597ZM236.102 50H231.826L227.3 43.1429V50H223.024V36.3628H227.3L231.826 43.3355V36.3628H236.102V50ZM248.744 36.3628V39.7528H245.123V50H240.846V39.7528H237.264V36.3628H248.744ZM111.022 79.1348C109.391 79.1348 108.043 78.756 106.977 77.9984C105.924 77.2279 105.352 76.1043 105.262 74.6276H109.808C109.872 75.4109 110.219 75.8026 110.848 75.8026C111.079 75.8026 111.272 75.7512 111.426 75.6485C111.593 75.5329 111.677 75.3596 111.677 75.1284C111.677 74.8074 111.503 74.5506 111.157 74.358C110.81 74.1525 110.27 73.9214 109.539 73.6645C108.665 73.3564 107.94 73.0546 107.362 72.7593C106.797 72.4639 106.309 72.0337 105.898 71.4687C105.487 70.9037 105.288 70.1782 105.301 69.2922C105.301 68.4061 105.526 67.6549 105.975 67.0386C106.437 66.4094 107.06 65.9342 107.844 65.6132C108.64 65.2922 109.532 65.1317 110.521 65.1317C112.19 65.1317 113.513 65.5169 114.489 66.2874C115.478 67.0578 115.998 68.1429 116.049 69.5426H111.445C111.433 69.1573 111.336 68.8813 111.157 68.7143C110.977 68.5474 110.758 68.4639 110.502 68.4639C110.322 68.4639 110.174 68.5281 110.059 68.6565C109.943 68.7721 109.885 68.939 109.885 69.1573C109.885 69.4655 110.052 69.7223 110.386 69.9278C110.733 70.1204 111.278 70.358 112.023 70.6405C112.884 70.9615 113.59 71.2697 114.142 71.565C114.707 71.8604 115.195 72.2713 115.606 72.7978C116.017 73.3243 116.222 73.9856 116.222 74.7817C116.222 75.6164 116.017 76.3676 115.606 77.0353C115.195 77.6902 114.598 78.2039 113.815 78.5762C113.031 78.9486 112.1 79.1348 111.022 79.1348ZM130.823 65.3628L125.93 74.8588V79H121.654V74.8588L116.762 65.3628H121.654L123.831 70.1975L126.007 65.3628H130.823ZM137.13 79.1348C135.499 79.1348 134.151 78.756 133.085 77.9984C132.032 77.2279 131.461 76.1043 131.371 74.6276H135.917C135.981 75.4109 136.328 75.8026 136.957 75.8026C137.188 75.8026 137.381 75.7512 137.535 75.6485C137.702 75.5329 137.785 75.3596 137.785 75.1284C137.785 74.8074 137.612 74.5506 137.265 74.358C136.918 74.1525 136.379 73.9214 135.647 73.6645C134.774 73.3564 134.048 73.0546 133.47 72.7593C132.905 72.4639 132.417 72.0337 132.007 71.4687C131.596 70.9037 131.397 70.1782 131.409 69.2922C131.409 68.4061 131.634 67.6549 132.084 67.0386C132.546 66.4094 133.169 65.9342 133.952 65.6132C134.748 65.2922 135.641 65.1317 136.629 65.1317C138.299 65.1317 139.621 65.5169 140.597 66.2874C141.586 67.0578 142.106 68.1429 142.157 69.5426H137.554C137.541 69.1573 137.445 68.8813 137.265 68.7143C137.085 68.5474 136.867 68.4639 136.61 68.4639C136.43 68.4639 136.283 68.5281 136.167 68.6565C136.051 68.7721 135.994 68.939 135.994 69.1573C135.994 69.4655 136.161 69.7223 136.494 69.9278C136.841 70.1204 137.387 70.358 138.132 70.6405C138.992 70.9615 139.698 71.2697 140.251 71.565C140.816 71.8604 141.303 72.2713 141.714 72.7978C142.125 73.3243 142.331 73.9856 142.331 74.7817C142.331 75.6164 142.125 76.3676 141.714 77.0353C141.303 77.6902 140.706 78.2039 139.923 78.5762C139.14 78.9486 138.209 79.1348 137.13 79.1348ZM154.543 65.3628V68.7528H150.921V79H146.645V68.7528H143.063V65.3628H154.543ZM159.978 68.7721V70.4479H164.216V73.6645H159.978V75.5907H164.794V79H155.702V65.3628H164.794V68.7721H159.978ZM182.797 65.3628V79H178.54V72.2007L176.441 79H172.781L170.681 72.2007V79H166.405V65.3628H171.644L174.649 73.549L177.577 65.3628H182.797Z" fill="white"/>
<path d="M106.547 94.1581C106.75 93.8035 107.046 93.514 107.437 93.2896C107.828 93.0653 108.273 92.9531 108.773 92.9531C109.308 92.9531 109.789 93.0797 110.216 93.333C110.643 93.5864 110.98 93.9446 111.226 94.4078C111.472 94.8638 111.595 95.3957 111.595 96.0037C111.595 96.6044 111.472 97.14 111.226 97.6104C110.98 98.0808 110.64 98.4463 110.206 98.7069C109.779 98.9674 109.301 99.0977 108.773 99.0977C108.259 99.0977 107.806 98.9855 107.415 98.7612C107.032 98.5368 106.742 98.2509 106.547 97.9035V99H105.559V90.9664H106.547V94.1581ZM110.586 96.0037C110.586 95.555 110.495 95.1641 110.314 94.8312C110.133 94.4983 109.887 94.245 109.576 94.0713C109.272 93.8976 108.935 93.8107 108.566 93.8107C108.204 93.8107 107.868 93.9012 107.557 94.0821C107.253 94.2558 107.007 94.5128 106.818 94.8529C106.637 95.1858 106.547 95.573 106.547 96.0145C106.547 96.4633 106.637 96.8577 106.818 97.1979C107.007 97.5308 107.253 97.7877 107.557 97.9687C107.868 98.1424 108.204 98.2292 108.566 98.2292C108.935 98.2292 109.272 98.1424 109.576 97.9687C109.887 97.7877 110.133 97.5308 110.314 97.1979C110.495 96.8577 110.586 96.4596 110.586 96.0037ZM118.02 93.0508L114.437 101.801H113.417L114.589 98.9349L112.19 93.0508H113.286L115.154 97.871L116.999 93.0508H118.02ZM129.582 91.4875V99H128.595V93.3982L126.098 99H125.403L122.895 93.3873V99H121.907V91.4875H122.971L125.75 97.6973L128.529 91.4875H129.582ZM131.573 99.0651C131.385 99.0651 131.225 99 131.095 98.8697C130.965 98.7395 130.9 98.5802 130.9 98.3921C130.9 98.2039 130.965 98.0447 131.095 97.9144C131.225 97.7841 131.385 97.719 131.573 97.719C131.754 97.719 131.906 97.7841 132.029 97.9144C132.159 98.0447 132.224 98.2039 132.224 98.3921C132.224 98.5802 132.159 98.7395 132.029 98.8697C131.906 99 131.754 99.0651 131.573 99.0651ZM140.904 97.3173H137.604L136.996 99H135.954L138.69 91.4766H139.83L142.554 99H141.512L140.904 97.3173ZM140.622 96.5139L139.254 92.6925L137.886 96.5139H140.622ZM149.577 91.4332V99H148.589V95.5694H144.735V99H143.747V91.4332H144.735V94.7552H148.589V91.4332H149.577ZM158.939 91.4875V99H157.951V93.3982L155.454 99H154.759L152.251 93.3873V99H151.263V91.4875H152.327L155.107 97.6973L157.886 91.4875H158.939ZM165.087 97.3173H161.787L161.179 99H160.137L162.872 91.4766H164.012L166.737 99H165.695L165.087 97.3173ZM164.805 96.5139L163.437 92.6925L162.069 96.5139H164.805ZM170.285 91.4332C171.11 91.4332 171.823 91.5888 172.424 91.9C173.032 92.204 173.495 92.6419 173.814 93.2136C174.139 93.7854 174.302 94.4585 174.302 95.2329C174.302 96.0073 174.139 96.6804 173.814 97.2521C173.495 97.8167 173.032 98.2509 172.424 98.5549C171.823 98.8516 171.11 99 170.285 99H167.929V91.4332H170.285ZM170.285 98.1858C171.262 98.1858 172.008 97.9289 172.522 97.415C173.036 96.8939 173.292 96.1665 173.292 95.2329C173.292 94.292 173.032 93.5574 172.511 93.0291C171.997 92.5007 171.255 92.2366 170.285 92.2366H168.917V98.1858H170.285Z" fill="white"/>
</svg>
